<svg xmlns="http://www.w3.org/2000/svg" xmlns:xlink="http://www.w3.org/1999/xlink" width="166.599" height="166.251" viewBox="0 0 166.599 166.251">
  <defs>
    <style>
      .cls-1 {
        opacity: 0.997;
      }

      .cls-2, .cls-4 {
        fill: #1b7b69;
      }

      .cls-2, .cls-3 {
        fill-rule: evenodd;
      }

      .cls-3 {
        fill: url(#radial-gradient);
      }
    </style>
    <radialGradient id="radial-gradient" cx="0.24" cy="0.26" r="0.768" gradientTransform="translate(-0.018) scale(0.989 1)" gradientUnits="objectBoundingBox">
      <stop offset="0" stop-color="#fffffe"/>
      <stop offset="0.014" stop-color="#caf0e9"/>
      <stop offset="0.41" stop-color="#1b7b69"/>
      <stop offset="0.514" stop-color="#1b7b69"/>
      <stop offset="0.621" stop-color="#1b7b69"/>
      <stop offset="0.734" stop-color="#1b7b69"/>
      <stop offset="0.86" stop-color="#1b7b69"/>
      <stop offset="1" stop-color="#1b7b69"/>
    </radialGradient>
  </defs>
  <g id="logo" class="cls-1" transform="translate(-135.403 -194.788)">
    <path id="路径_1" data-name="路径 1" class="cls-2" d="M284.227,250.205l-1.045-2.092,7.319-6.274h0c.7-.7,1.045-1.045,1.045-1.743l1.395-.7,1.742,4.88-1.394.7v-.348c0-.348-.348-.348-.348-.7h-.7a.342.342,0,0,1-.349.348h0l-1.394,1.045,1.045,3.137h1.743l.348-.348h0c.348,0,.7,0,.7-.348s0-.348-.348-1.045l1.395-.349,1.742,4.183-1.394.348c-.348-.7-1.046-1.045-2.44-.7h-9.062Zm2.091-1.743h3.834l-1.045-2.091Zm3.485,14.987V262.4c.348-.349,1.045-.349,1.742-.7l4.531-1.395c1.045,0,1.394-.348,1.742,0a.75.75,0,0,1,.7.7l1.394-.348-1.045-3.834-1.395.348v1.045a2.045,2.045,0,0,1-1.742.7l-5.577,1.395,7.667-6.97-.348-2.092-8.016,2.092a6.137,6.137,0,0,1-2.091.348,1.217,1.217,0,0,1-.348-.7l-1.743.348,1.395,3.834,1.045-.348c0-.7,0-1.046.348-1.046,0-.348.7-.7,1.743-.7l3.137-1.045-5.925,5.577,1.394,4.182ZM145.859,282.618c.348.348,0,.7,0,1.046a15.108,15.108,0,0,1-1.743.348l-4.879.349a1.557,1.557,0,0,1-1.743,0c-.348,0-.348-.349-.348-.7h-1.394l1.045,9.061,4.182,1.046.348-1.046a6.25,6.25,0,0,1-2.439-1.742,7.291,7.291,0,0,1-1.395-2.091c0-.7,0-1.045.348-1.045,0-.348.7-.348,1.046-.348l2.788-.349.348.349c0,.348-.348.7-.348,1.045a2.666,2.666,0,0,1-1.743.7l.348,1.045,5.228-.7v-1.045h-1.743c0-.348-.348-.7-.348-1.045v-.7h1.743c.348-.349,1.045-.349,1.045,0,.348,0,.348.348.348,1.045a2.306,2.306,0,0,1-.348,2.091,9.22,9.22,0,0,1-1.743,2.091l.7,1.046,3.485-2.091L147.6,282.27Zm-1.743-11.85-.348,1.046a3.481,3.481,0,0,1,1.743,1.394,2.614,2.614,0,0,1,.348,1.743h0l-6.622-.349c-1.046,0-1.395,0-1.743-.348-.348,0-.348-.349-.348-.7l-1.394-.348-.348,5.577H136.8a1.53,1.53,0,0,1,.348-1.046,12.346,12.346,0,0,1,2.091-.348l6.622.348v.349c0,.7-.348,1.045-.7,1.742a5.665,5.665,0,0,1-2.091,1.045l.348,1.046,3.834-1.046.348-8.713Zm4.531-4.531-.348,2.44-9.41,1.394h0c-1.046,0-1.743.348-1.743,1.046l-1.742-.349,1.045-5.227,1.394.348v1.045c.348,0,.348.348.7.348h.348l1.742-.348.7-3.137-1.394-.7h-.348a.483.483,0,0,0-.7,0c-.348,0-.348.348-.348.7H136.8l1.045-4.531,1.395.348a2.522,2.522,0,0,0,1.394,2.091h.348Zm-2.788.348-3.137-2.092-.348,2.44ZM149,252.3l-.7.7a7.289,7.289,0,0,1,1.394,2.091,3.79,3.79,0,0,1-.348,1.743h0l-6.274-2.091c-.7-.348-1.394-.348-1.394-.7a1.278,1.278,0,0,1-.349-1.045l-1.394-.7-1.743,5.227,1.395.348.7-.7a6.137,6.137,0,0,1,2.091.348l6.274,2.091h0a3.476,3.476,0,0,1-1.395,1.742,12.293,12.293,0,0,1-2.091.349V263.1H149l3.137-8.365Zm3.485-1.743,2.091-2.091a4.335,4.335,0,0,0,0-2.788,3.567,3.567,0,0,0-1.743-2.091,3.848,3.848,0,0,0-1.742-.349h-1.395c0,.349-.431.431-.7.7a5.209,5.209,0,0,1-1.395,1.394.341.341,0,0,1-.348.348c-1.045,1.395-1.742,1.743-2.439,1.395a.75.75,0,0,1-.7-.7c-.348-.7,0-1.045,0-1.742a3.487,3.487,0,0,1,1.743-1.395,10.2,10.2,0,0,1,3.137-.7v-1.045l-4.531-1.045-.348,1.045.7.348a4.789,4.789,0,0,0-1.395,1.046,1.809,1.809,0,0,0-.7,1.394,3.673,3.673,0,0,0-.348,3.137,4.618,4.618,0,0,0,2.091,2.44,6.809,6.809,0,0,0,2.44.348,11.1,11.1,0,0,0,2.44-2.092.341.341,0,0,0,.348-.348c1.395-1.395,2.091-2.091,2.788-1.742.348,0,.348.348.348.7.348.348,0,.7,0,1.394-.348.348-.78,1.128-1.394,1.394a6.214,6.214,0,0,1-2.44.349V250.9l3.485,1.045.7-1.045-.7-.348Zm118.5-29.625,1.045,1.394,3.485,3.485,1.395,1.395-1.395,1.045-2.091,2.091-1.046,1.045-1.394-1.395-3.485-3.834-1.046-1.045,1.046-1.045,2.439-2.091Zm2.44-3.835,1.742-1.394,1.395,1.742,6.622,6.97,1.394,1.395-1.394,1.395-8.365,7.667-.7.7h-1.046a25.542,25.542,0,0,1-2.091-1.743c0-.348.348-.348.348-.7.348,0,.348-.348.7-.7v-.7l1.045,1.045c.349.348.349.348.7.348a.341.341,0,0,0,.348-.348l7.667-6.97-6.622-6.97Zm6.274,8.714L278.3,227.2l-1.394-1.395-4.88-5.228-1.394-1.394,1.394-1.394,1.395,1.394,4.879,5.227Zm-7.32,2.788,1.743-1.743-3.137-3.137-1.743,1.743Zm-13.593-24.049a14.539,14.539,0,0,1-.7,2.091v1.394a2.223,2.223,0,0,0,0,2.091,8.869,8.869,0,0,0,.7,2.44A8.734,8.734,0,0,0,260.177,215a6.029,6.029,0,0,1,1.395-1.045c.348,0,.348,0,.7-.348l-1.045-1.045a1.217,1.217,0,0,1-.348-.7,4.176,4.176,0,0,1-.7-1.394,5.49,5.49,0,0,1-.348-2.091,2.638,2.638,0,0,0,.348-1.395,1.079,1.079,0,0,0,.348-.7c0-.348.349-.348.349-.7l-2.091-1.045Zm-10.805,7.668h-1.394v.7a4.669,4.669,0,0,1-.348,1.743c.7,0,1.045.348,1.742.348a14.369,14.369,0,0,0,3.137,1.395,30.29,30.29,0,0,1,4.183,1.742c0,.7.348,1.046,0,1.395v.7l.7-.348a6.106,6.106,0,0,0,1.743-.348,52.082,52.082,0,0,0-.7-5.925H254.95v1.046c.348.348.348.7.348,1.742-1.743-1.045-3.834-1.742-5.577-2.788a4.952,4.952,0,0,1,2.091-.7l3.485-1.743a1.079,1.079,0,0,0,.7-.348,7.281,7.281,0,0,1-1.394-2.091l-.349.349a4.312,4.312,0,0,1-1.045.7l-2.092,1.045a2.662,2.662,0,0,1-1.742.7c-.348.348-1.045.348-1.395.7Zm.349-3.834a12.445,12.445,0,0,0,3.137-.7,17.262,17.262,0,0,0,2.787-1.045,19.51,19.51,0,0,1,2.788-1.743,3.479,3.479,0,0,1-1.394-1.742l-.348.348a15.162,15.162,0,0,1-2.44,1.394,24.013,24.013,0,0,1-2.788,1.046,5.931,5.931,0,0,1-2.44.348l.348.348a15.041,15.041,0,0,1,.349,1.743Zm-25.444.7.349-2.091,1.742-10.107.348-2.091,2.091.348,9.41,1.743,2.092.348-.349,1.743-1.742,10.8c0,.348,0,.7-.348.7,0,.348-.348.7-1.046.7h-2.091v-.7a1.28,1.28,0,0,0-.348-1.045v-.7c.348,0,.7.349,1.045.349h.7c0-.349,0-.349.348-.7l1.395-9.76-9.41-1.394-.348,2.091h.348c.348,0,.7-.348,1.045-.348a1.809,1.809,0,0,1,.7,1.394,1.281,1.281,0,0,0,.348-1.046,1.079,1.079,0,0,1,.349-.7v-.7a3.736,3.736,0,0,0,2.091.7c0,.349-.348.349-.348.7v.349l-.348,1.045c.348-.348,1.045-.348,1.045-.7h.348c.349.348.7.7.7,1.045a3.79,3.79,0,0,0,.348-1.743l.348-.348c.7.348,1.394.348,2.091.7a.342.342,0,0,0-.349.348l-.348,1.045c0,.7-.348,1.046-.348,1.394l-.7,1.046a20.689,20.689,0,0,1,1.045,2.44v.348c-.348.348-1.045.7-1.742,1.394v-1.045l-.348-1.046a12.6,12.6,0,0,1-1.395,1.743c-.348.348-.7.7-1.045.7l-.348-.348c-.348-.348-.7-.348-1.046-1.045a4.789,4.789,0,0,0,1.395-1.046A4.81,4.81,0,0,1,231.6,204.2l.348-.7c0-.7-.348-1.046-.348-1.394s-.348-.7-.7-1.395c-.348.7-.7,1.045-.7,1.395l-.348.348c.348.7.7,1.743,1.045,2.44l-2.091,1.046v-1.395c-.348.348-.348.7-.7.7,0,.348-.7.7-1.394,1.394a.341.341,0,0,0-.348-.348c0-.348-.349-.7-.7-1.045l-.348,2.091-.348,2.091Zm2.788-4.183q1.047-.523,1.046-1.045a4.8,4.8,0,0,0,1.045-1.395,13.7,13.7,0,0,1-.7-2.091l-.348-.7Zm-18.821-.348,3.485-.7-.348-1.742-3.485.7Zm-.7-3.485,3.834-.7-.348-2.091-3.834.7Zm-4.531,4.531,3.137-.7-.348-1.742-3.137.348Zm-3.485-7.319,1.742-.348,3.485-.348v-1.045l-.348-1.395,2.091-.348.348,1.394v1.046l4.531-.7,1.395-.349v1.395l1.045,6.622.348,1.743-2.091.348v-.348l-3.486.348.349,1.742v.349c0,.348.348.348.7.348l2.091-.348a3.6,3.6,0,0,0,1.395-.349c.348,0,.7-.348,1.045-.348v-1.742a8.876,8.876,0,0,0,2.44.7c-.348,1.045-.348,2.091-.7,2.091a.75.75,0,0,1-.7.7c0,.348-.349.348-1.046.348-.348.348-1.394.348-2.44.348a6.8,6.8,0,0,1-2.439.348c-.7.348-1.046.348-1.395,0a1.217,1.217,0,0,1-.7-.348c0-.348-.348-.7-.348-1.045l-.348-2.44-3.137.7h0l-2.091.348-.348-1.394-1.045-6.622Zm2.788,3.485,3.137-.348-.348-2.091-3.137.7Zm-24.4,9.41-.348-1.045-.349-1.045,9.41-4.88.7,1.046.348.7,2.091-1.046-.7-.7-.7-1.743-.7-1.045-1.395,1.045-4.531,2.091a.341.341,0,0,0,.348-.348c-.348-.348-1.045-.348-2.091-.7-.348.7-.7,1.045-.7,1.394l-.348.349c.348,0,.7.348,1.045.348l-3.834,2.091-1.742.7.348,1.045,1.045,1.742.348.7Zm5.227,4.531c-.7,1.394-2.091,2.439-3.485,3.834l.7.348c.349,0,.7.348,1.046.7l1.742-1.742c.348-.7,1.046-1.395,1.395-2.091a19.988,19.988,0,0,0,1.394-2.44l.348.349v.7c.348.348.348.7,0,.7,0,.348-.348.7-1.394,1.045l.7.348q.523,0,1.045,1.046c1.046-.7,1.743-1.046,2.091-1.743v-1.394c-.348-.349-.348-.7-.7-1.395a5.012,5.012,0,0,1-.7-1.045c0-.348-.348-.348-.348-.7l.348-.7c.7.7,1.045,1.394,1.742,1.742s1.046.7,1.743.7a22.3,22.3,0,0,0,3.137.7V213.26a1.28,1.28,0,0,0,.348-1.045h-2.788l-2.091-1.046-1.045-1.045,1.045-2.091a3.472,3.472,0,0,0-1.394-.348,1.217,1.217,0,0,1-.7-.348l-.348,1.046a19.212,19.212,0,0,0-1.395,2.788l-.348-.348c-.348,0-.7-.348-1.394-.348a7.606,7.606,0,0,0,1.045-1.743h-.7l2.091-1.045,1.395-.7-.7-1.742-1.395.7-6.274,3.485-1.394.348,1.045,1.743,1.045-.7,2.091-1.045a19.979,19.979,0,0,1-2.44,2.788c-.7.348-1.394,1.045-1.742,1.045a4.312,4.312,0,0,1,1.045.7l.7.7,3.137-3.137h0l-1.045,2.091-1.395,1.395c-.265.265-1.045.7-1.394,1.045a4.312,4.312,0,0,1,1.045.7l.7.7A11.425,11.425,0,0,0,181.409,215a14.75,14.75,0,0,0,1.743-2.439l.348.348a31.961,31.961,0,0,1-1.743,2.788Zm-18.123,17.426,6.97-7.319-8.017-7.668-6.97,7.32Zm-10.805-7.319,1.045-1.395,7.668-7.667,1.045-1.394,1.395,1.394L172,224.413l1.395,1.046L172,227.2v-.349l-7.319,7.32.348.348-1.394,1.394-1.395-1.394-8.365-7.668Zm8.714,5.228,1.394-1.046,1.395-1.742-1.743-1.395-1.045,1.046-1.045,1.045L159.1,227.9l1.045-1.046,1.395-1.394-1.395-1.046-1.394,1.395-1.045,1.395-1.395-1.395,1.046-1.045,4.531-4.531,1.045-1.045,1.395,1.045-1.046,1.045-1.742,1.743,1.394,1.046,1.395-1.395.7-1.045,1.394,1.394-1.045.7h2.091v1.395l1.045-1.045,1.045,1.045-1.045,1.045-4.531,4.88-1.046,1.045Zm5.228-5.577H164.68a1.281,1.281,0,0,0,.348-1.046l-1.045.7,1.742,1.742Zm124.078,43.915c-.348-.348,0-.7,0-1.046a15.108,15.108,0,0,1,1.743-.348l4.531-1.046h1.743c.348.348.7.348.7,1.046l1.394-.349-.7-5.227-1.742.348c.348.348,0,.7,0,1.045a15.149,15.149,0,0,1-1.743.348l-4.531,1.045H290.5c-.348-.348-.7-.348-.7-1.045l-1.395.348,1.046,5.228Zm.7,13.244c0-.7,0-1.045.348-1.045.349-.348.7-.348,1.743-.348l4.531-.349h2.091c0,.349.348.7.348,1.046H302l-.348-5.228h-1.395a1.279,1.279,0,0,1-.348,1.045,7.074,7.074,0,0,1-1.743.349h-2.091l-.348-3.834,2.091-.349c1.046,0,1.743,0,1.743.349a.749.749,0,0,1,.7.7h1.395l-.349-5.228h-1.742c.348.7,0,1.045,0,1.045-.348.349-1.045.349-2.091.349l-4.531.348H291.2c-.348-.348-.348-.348-.348-1.045h-1.742l.348,5.577,1.394-.348c0-.348.348-.7.7-1.046a6.331,6.331,0,0,1,2.788-.348l.348,4.182h-1.394a2.614,2.614,0,0,1-1.743-.348c-.348,0-.348-.349-.348-.7H289.8l.348,5.227Zm-1.394,2.091c0,.348-.348.7-.7,1.045v1.394a4.582,4.582,0,0,0,1.045,4.183,7.342,7.342,0,0,0,4.531,1.743,5.028,5.028,0,0,0,4.531-1.046,6.268,6.268,0,0,0,1.742-6.97,6.452,6.452,0,0,0-2.788-2.44l-.7,1.046a8.833,8.833,0,0,1,1.743,2.091c.266.615.7,1.046.7,1.743a4.037,4.037,0,0,1-1.742,2.44,7.758,7.758,0,0,1-3.137.348,5.2,5.2,0,0,1-3.486-1.045,3.163,3.163,0,0,1-1.045-2.439c0-.7.348-1.046,1.045-1.743a5.61,5.61,0,0,1,2.44-1.394v-1.046l-4.531,1.046-.348.7.7.348Zm-4.531,21.958c.349-.348.349-.7.7-.7.348-.348,1.045,0,1.742.349l4.531,1.394,1.394.7c.348.349.348.7.348,1.395l1.395.348,1.742-5.228-1.394-.348-.7.7a3.79,3.79,0,0,1-1.743-.348l-2.091-.7.348-.348a.75.75,0,0,1,.7-.7,1.552,1.552,0,0,1,1.742,0l.348-1.046-5.576-1.742-.349.7c.7.348,1.395.7,1.395,1.045.348.349.348.7,0,1.395v.348l-1.743-.7c-.7,0-1.045-.349-1.045-.7v-1.046a3.484,3.484,0,0,1,1.394-1.743,3.166,3.166,0,0,1,2.44-1.045l-.348-1.045-3.485.348-3.137,8.365Zm-4.531,9.41a4.288,4.288,0,0,1,.348-4.531,6.841,6.841,0,0,1,3.137-3.137,8.257,8.257,0,0,1,8.365,3.834,6.8,6.8,0,0,1-.348,4.531,4.548,4.548,0,0,1-3.485,3.137,6.938,6.938,0,0,1-4.531-.348,8.362,8.362,0,0,1-3.485-3.485Zm3.485-5.228c-1.045,0-1.394.7-2.091,1.394-.348.7,0,1.395.349,2.44a9.324,9.324,0,0,0,2.788,2.091,8.625,8.625,0,0,0,3.486.7,1.911,1.911,0,0,0,2.091-1.394,2.2,2.2,0,0,0-.348-2.44,6.368,6.368,0,0,0-2.788-2.091,6.894,6.894,0,0,0-3.485-.7Zm-14.289,18.124a1.28,1.28,0,0,1,1.045-.348c.348,0,.7.348,1.394,1.045l3.485,3.137c.7.7,1.046,1.046,1.046,1.394a1.281,1.281,0,0,1-.348,1.046l1.045,1.045,2.788-3.137-1.045-.7a1.283,1.283,0,0,1-1.046.348c-.348,0-.7-.348-1.394-1.045l-4.183-3.835,10.108,2.44,1.394-1.394L278.65,323.4c-.7-.7-1.045-1.045-1.045-1.394-.348-.349,0-.7.348-1.046l-1.045-.7-2.788,2.788,1.045,1.045c.348-.348.7-.7,1.045-.7a6.54,6.54,0,0,0,1.395,1.046l2.44,2.439-7.668-2.091-3.137,3.486Zm-7.668,6.97a5.073,5.073,0,0,1,2.091-4.182,5.494,5.494,0,0,1,4.531-1.045c1.395,0,2.788,1.045,4.183,2.439a5.491,5.491,0,0,1,1.394,4.531,4.929,4.929,0,0,1-2.091,3.834,5.694,5.694,0,0,1-8.713-1.394,6.7,6.7,0,0,1-1.395-4.183Zm5.577-3.137a2.066,2.066,0,0,0-2.44.348,1.552,1.552,0,0,0-.7,2.091,6.266,6.266,0,0,0,1.394,3.137,15.3,15.3,0,0,0,2.788,2.44,2.861,2.861,0,0,0,2.44-.349,2.155,2.155,0,0,0,.7-2.439,5.666,5.666,0,0,0-1.394-3.137,7.319,7.319,0,0,0-2.788-2.091ZM246.933,347.1h1.045c0-1.046,0-1.743.349-2.092,0-.7.7-1.045,1.045-1.395h.348l3.137,5.577c.348,1.046.7,1.395.7,1.743-.348.348-.348.7-1.045,1.045l.7,1.045,4.88-2.439-.7-1.045h-1.045a4.827,4.827,0,0,1-1.045-1.395l-3.137-5.925h0a2.3,2.3,0,0,1,2.091-.348,5.383,5.383,0,0,1,2.092,1.045l.7-1.045-3.137-2.44-7.667,4.182Zm-6.274-1.743,2.44-.7,5.925,6.97h0a3.013,3.013,0,0,0,2.091,1.046l.349,1.394-4.88,1.743-.348-1.395h0a1.217,1.217,0,0,0,.7-.348v-.7h0c0-.349,0-.349-.348-.349l-1.045-1.394-3.137,1.394.348,1.395v.348h0a1.217,1.217,0,0,0,.348.7h1.045l.7,1.046-4.182,1.742-.7-1.394c.7-.348,1.045-1.045,1.045-2.44h0Zm1.743,2.44v3.485l2.091-.7Zm-17.079.7,6.274-.7a5.816,5.816,0,0,1,3.485,0,3.525,3.525,0,0,1,1.395,2.44,2.3,2.3,0,0,1-.348,2.091,3.77,3.77,0,0,1-1.743,1.395l2.788,2.439c.348.349.7.7,1.045.7s.7.348,1.046,0v1.394l-3.137.7-4.531-4.531-1.045.348.348,1.394a2.662,2.662,0,0,0,.7,1.743s.348.348,1.046,0v1.743l-5.228.7-.348-1.394c.7,0,1.045-.349,1.045-.7.348,0,.348-.7,0-1.742l-.7-4.531a2.662,2.662,0,0,0-.7-1.742s-.348-.349-1.046,0Zm5.228,4.531h.348a21.86,21.86,0,0,0,2.44-.7,3.141,3.141,0,0,0,.348-1.742c0-.348-.348-1.045-.7-1.045a3.769,3.769,0,0,0-2.091-.349,1.216,1.216,0,0,0-.7.349c-.348.348-.348.7,0,1.394Zm-14.987-2.439a5.773,5.773,0,0,1,4.182-1.743,5.555,5.555,0,0,1,4.183,1.395,6.625,6.625,0,0,1,1.742,4.531,6.426,6.426,0,0,1-1.394,4.531,5.77,5.77,0,0,1-4.182,1.743,5.558,5.558,0,0,1-4.183-1.394c-1.394-1.046-1.742-2.788-1.742-4.531a5.154,5.154,0,0,1,1.394-4.531Zm6.274.7a3.012,3.012,0,0,0-2.091-1.045,1.911,1.911,0,0,0-2.091,1.394,8.748,8.748,0,0,0-.7,3.485,5.887,5.887,0,0,0,1.045,3.485,2.108,2.108,0,0,0,2.091,1.046,2.521,2.521,0,0,0,2.091-1.395,5.414,5.414,0,0,0,.348-3.485,10.314,10.314,0,0,0-.7-3.485Zm-17.426-3.485,5.924.7a3.621,3.621,0,0,1,2.788,1.394,2.526,2.526,0,0,1,.7,2.789,1.911,1.911,0,0,1-1.395,2.091,3.755,3.755,0,0,1-2.788.7l-2.091-.348v3.137c0,.348.348.348,1.045.348l-.348,1.395-5.228-.348.348-1.743c.348.348.7,0,1.046,0a15.075,15.075,0,0,0,.348-1.743l.7-4.531v-2.091c-.348,0-.7-.349-1.045-.349Zm3.485,5.925h.348a1.953,1.953,0,0,0,2.091-.348c.349,0,.7-.7.7-1.395a1.908,1.908,0,0,0-.348-1.394,1.934,1.934,0,0,0-1.395-.7h-.7c-.348.349-.348.7-.348,1.395Zm-14.639-9.41,5.925,1.742a4.3,4.3,0,0,1,2.788,1.743,2.941,2.941,0,0,1,.7,2.44,2.453,2.453,0,0,1-1.394,1.742,2.949,2.949,0,0,1-2.091.7l1.394,3.484a1.281,1.281,0,0,0,.348,1.046c.349,0,.7.348,1.046.348l-.7,1.395-3.137-1.046-1.743-5.577-1.045-.348-.7,1.395c0,.7-.348,1.394,0,1.742,0,.348.349.348.7.7L195,357.2l-5.228-1.743.348-1.394c.7.348,1.045.348,1.394,0l.7-1.394,1.394-4.531c0-1.045.348-1.395,0-1.742a.75.75,0,0,0-.7-.7Zm2.44,5.925.348.348h.348q1.568.523,2.091,0c.7,0,1.045-.348,1.394-1.045a2.533,2.533,0,0,0-.348-1.395,5.139,5.139,0,0,0-1.394-1.045h-1.046c-.348.348-.7.7-.7,1.045Zm-12.2-8.714a5.212,5.212,0,0,1,4.531.348,4.544,4.544,0,0,1,3.137,3.485,5.5,5.5,0,0,1-.7,4.531,6.794,6.794,0,0,1-3.485,3.486,6.931,6.931,0,0,1-4.531-.349,9.877,9.877,0,0,1-3.137-3.484,8.011,8.011,0,0,1,.7-4.88c1.045-1.743,2.091-2.788,3.485-3.137Zm5.228,3.485a1.778,1.778,0,0,0-1.395-1.742c-.7-.7-1.394-.349-2.44,0a9.3,9.3,0,0,0-2.091,2.788,8.647,8.647,0,0,0-1.046,3.486,4.444,4.444,0,0,0,1.395,2.091,2.148,2.148,0,0,0,2.44-.348,4.564,4.564,0,0,0,2.091-2.788,7.8,7.8,0,0,0,1.046-3.485Zm-8.714-6.274c0-.7-.348-1.045-.348-1.395-.348-.348-.7-.7-1.046-.7a4.82,4.82,0,0,0-4.182-1.045c-1.743,0-2.788,1.045-4.182,2.44a7.662,7.662,0,0,0-1.395,4.531c0,1.395,1.046,2.788,2.091,3.835a5.623,5.623,0,0,0,3.137,1.045,4.29,4.29,0,0,0,3.485-.7l-.7-1.394a5.04,5.04,0,0,1-2.44.7,4.96,4.96,0,0,1-2.091-.7,3.164,3.164,0,0,1-1.045-2.44,6.267,6.267,0,0,1,1.394-3.137,7.314,7.314,0,0,1,2.788-2.091,2.063,2.063,0,0,1,2.44.348,1.916,1.916,0,0,1,1.045,1.742,7.674,7.674,0,0,1-.348,2.788l1.395.348,1.394-4.182-.7-.7-.7.7Zm-17.079-16.381,3.485,4.182a6.245,6.245,0,0,1,1.743,4.531,6.623,6.623,0,0,1-2.44,3.835,6.8,6.8,0,0,1-4.531,1.742,7.388,7.388,0,0,1-4.183-2.788l-3.137-4.183,1.046-.7a1.28,1.28,0,0,0,1.045.348l1.395-.7,3.485-3.137c1.045-.348,1.394-1.045,1.394-1.395a1.079,1.079,0,0,0-.348-.7Zm-4.182,8.713q-1.045.524-1.045,1.046a1.079,1.079,0,0,0,.348.7,4.425,4.425,0,0,0,2.44,1.394,12.365,12.365,0,0,0,3.137-1.394c1.394-1.045,2.091-2.091,2.091-2.788a2.711,2.711,0,0,0-.7-2.788c0-.348-.348-.348-.7-.348a2.7,2.7,0,0,0-1.046.348Zm-.7-12.895a1.279,1.279,0,0,1,.348,1.045l-1.395,1.394-3.834,2.788a5.886,5.886,0,0,1-1.742.7l-.7-.7-1.394,1.046,3.137,4.182,1.394-.7a2.7,2.7,0,0,1-.348-1.045c0-.348.7-1.045,1.395-1.394l3.834-2.788c.7-.348,1.045-.7,1.394-.7s.7.348,1.046.7l1.045-1.046-3.137-4.182Zm-4.531-11.153s.1.065,2.788,5.577a8.7,8.7,0,0,1,1.046,3.137,2.209,2.209,0,0,1-1.743,2.091,2.306,2.306,0,0,1-2.091.349c-.7,0-1.045-.349-1.742-1.046l-1.743,3.485c0,.348-.348.7-.348,1.045a1.281,1.281,0,0,0,.348,1.046l-1.394.7-1.395-3.137,2.788-5.227-.7-1.046-1.045.7a3.724,3.724,0,0,0-1.743,1.046,1.28,1.28,0,0,0,.348,1.045l-1.394.7-2.44-4.531,1.045-.7c.348.349.7.7,1.046.7s.7-.348,1.742-.7l3.834-2.091c1.046-.7,1.395-1.046,1.743-1.046a2.636,2.636,0,0,0-.348-1.394Zm-2.788,6.274h.349v.348a4.105,4.105,0,0,0,1.742,1.742,1.059,1.059,0,0,0,1.395,0c.7-.348.7-.7,1.045-1.045a3.141,3.141,0,0,0-.348-1.742c-.348-.349-.7-.7-1.046-.7a2.7,2.7,0,0,0-1.045.348Zm1.046-9.062v-1.395c0-.348-.348-.7-.348-1.045a5.55,5.55,0,0,0-3.137-3.137c-1.394-.7-2.788-.348-4.531,0a7.017,7.017,0,0,0-3.834,3.137,3.742,3.742,0,0,0-.348,3.835,1.81,1.81,0,0,0,.7,1.394c.348.348,1.045.7,1.395,1.045l-.7.7.7,1.742,2.788-1.395h1.395c.348,0,.348.349.7.7l1.395-.7-1.743-4.531-1.394.7a.654.654,0,0,1,0,1.046,1.22,1.22,0,0,1-.7.348,1.583,1.583,0,0,1-1.742,0c-.348,0-.7-.7-1.046-1.045a2.861,2.861,0,0,1,.349-2.44,12.526,12.526,0,0,1,3.137-1.743c1.394-.348,2.439-.7,3.485-.348a1.916,1.916,0,0,1,1.742,1.045v2.091a9.241,9.241,0,0,1-1.742,2.091l1.045,1.045,3.137-2.44-.348-.7Zm104.908,35.55a1.281,1.281,0,0,1,1.046-.348l1.394,1.395,2.44,3.834c.348,1.045.7,1.394.7,1.743s-.348.7-.7,1.045l.7,1.045L266.8,345.7l-.7-1.394a1.28,1.28,0,0,1-1.045.348c-.348,0-.7-.7-1.045-1.394l-2.44-3.835a3.187,3.187,0,0,1-1.046-1.742c.349-.349.349-.7.7-.7l-.7-1.395L256,338.384Z"/>
    <path id="路径_2" data-name="路径 2" class="cls-3" d="M283.465,282.756c0,28.777-20.442,52.741-47.456,58.856-9.133-3.2-17.169-10.566-23.108-20.657q2.821.137,5.712.14c27.186,0,50.189-9.062,58.9-21.609-12.2,9.759-31.716,16.382-53.674,16.382a108.6,108.6,0,0,1-14.073-.908,76.834,76.834,0,0,1-3.624-9.469,113.359,113.359,0,0,0,20.136.967c26.872-1.1,49.212-11.038,57.181-24.053,0,.118,0,.235,0,.353Zm-58.747,60.322c-.754.028-1.511.047-2.272.047a60.94,60.94,0,0,1-56.421-37.295c5.46,4.487,12.94,8.261,21.773,10.932,4.094,9.225,9.7,16.379,16.176,20.365a60.65,60.65,0,0,1-11.761-19.151,102.873,102.873,0,0,0,11.579,2.171c5.062,11.474,12.448,19.8,20.927,22.931Zm-62.774-52.425a60.209,60.209,0,0,1,37.313-63.769c-11.161,10.241-18.635,30.34-18.635,53.433A101.254,101.254,0,0,0,181.71,295.2a60.8,60.8,0,0,1-14.681-8.263c3.434,4.578,8.678,8.551,15.256,11.7a87.735,87.735,0,0,0,2.306,9.468c-10-4.417-17.9-10.463-22.647-17.454ZM220.2,222.431c.747-.027,1.5-.045,2.249-.045,29.538,0,54.511,21.034,59.927,48.991-8.131,16.252-32.317,28.935-61.321,29.851a106,106,0,0,1-16.22-.45,91.449,91.449,0,0,1-2.6-21.856c0-21.261,6.97-40.43,17.775-51.932-13.593,8.365-23.351,30.671-23.351,56.811a100.782,100.782,0,0,0,1.259,15.991,86.533,86.533,0,0,1-10.977-2.71A95.673,95.673,0,0,1,186.2,285.2c0-30.535,14.539-56.112,34-62.764Zm-18.969,91.04a85.867,85.867,0,0,1-2.5-9.313,81.688,81.688,0,0,1-11.235-3.3,87.6,87.6,0,0,0,2.064,9.245,91.028,91.028,0,0,0,11.673,3.37Z" transform="translate(-3.745 -3.971)"/>
    <path id="路径_3" data-name="路径 3" class="cls-4" d="M287.91,281.866a65.034,65.034,0,0,1-19.453,46.373,66.836,66.836,0,0,1-93.861.085,65.308,65.308,0,0,1,0-92.917,66.836,66.836,0,0,1,93.86.086,65.034,65.034,0,0,1,19.453,46.373Zm-1.673,0a63.376,63.376,0,0,0-18.957-45.19,65.177,65.177,0,0,0-91.507-.086,63.649,63.649,0,0,0,0,90.55,65.176,65.176,0,0,0,91.507-.085,63.373,63.373,0,0,0,18.957-45.19Z" transform="translate(-2.847 -3.081)"/>
  </g>
</svg>
